<?xml version="1.0" standalone="no"?>
<!DOCTYPE svg PUBLIC "-//W3C//DTD SVG 20010904//EN"
 "http://www.w3.org/TR/2001/REC-SVG-20010904/DTD/svg10.dtd">
<svg version="1.0" xmlns="http://www.w3.org/2000/svg"
 width="500.000000pt" height="500.000000pt" viewBox="0 0 500.000000 500.000000"
 preserveAspectRatio="xMidYMid meet">

<g transform="translate(0.000000,500.000000) scale(0.100000,-0.100000)"
fill="#000000" stroke="none">
<path d="M3384 4745 c-44 -30 -176 -119 -294 -198 -194 -130 -429 -294 -455
-319 -17 -16 44 11 82 36 19 14 42 22 51 19 10 -4 13 -2 8 5 -6 10 26 39 89
78 24 15 28 16 17 2 -8 -10 -9 -17 -2 -20 16 -5 -122 -92 -147 -93 -12 -1 -26
-5 -30 -9 -4 -5 3 -5 16 -1 16 5 21 4 17 -4 -4 -6 0 -11 10 -11 21 0 128 68
311 197 72 51 158 112 191 136 166 116 260 188 265 200 7 18 -11 37 -34 37 -9
0 -52 -25 -95 -55z m114 34 c-2 -6 -8 -10 -13 -10 -5 0 -11 4 -13 10 -2 6 4
11 13 11 9 0 15 -5 13 -11z m-34 -18 c7 -11 -22 -36 -31 -28 -3 4 2 10 11 13
14 5 15 9 4 15 -9 6 -9 9 -1 9 6 0 14 -4 17 -9z m-76 -68 c-30 -22 -183 -130
-391 -275 -45 -32 -86 -57 -92 -57 -5 -1 1 8 15 19 14 10 25 24 25 31 0 6 11
19 25 28 14 9 21 11 16 4 -8 -15 3 -17 23 -4 8 5 10 14 6 22 -6 9 -4 11 7 6 9
-3 30 5 48 18 17 12 26 25 20 27 -5 1 0 9 12 17 21 13 22 13 9 -2 -9 -12 -10
-17 -2 -17 6 0 14 7 17 15 4 8 14 15 23 15 13 0 13 2 2 9 -9 6 -10 11 -2 15 6
4 11 3 11 -3 0 -6 8 -7 17 -4 11 5 13 8 4 11 -7 2 1 14 20 28 37 27 44 29 33
13 -4 -7 -1 -10 7 -7 8 3 13 12 13 20 -1 8 8 21 20 28 19 12 20 12 7 -3 -19
-24 -8 -21 36 9 21 14 37 30 35 36 -1 5 2 7 8 3 13 -8 42 14 34 26 -3 5 2 6
11 3 12 -5 9 -11 -17 -31z"/>
<path d="M3199 4583 c-13 -17 -13 -17 6 -3 11 8 22 16 24 17 2 2 0 3 -6 3 -6
0 -17 -8 -24 -17z"/>
<path d="M2955 4420 c-3 -5 -1 -10 4 -10 6 0 11 5 11 10 0 6 -2 10 -4 10 -3 0
-8 -4 -11 -10z"/>
<path d="M2818 4319 l-33 -31 40 28 c22 16 42 29 44 31 2 2 -1 3 -7 3 -7 0
-26 -14 -44 -31z"/>
<path d="M1980 4144 c-63 -53 -182 -152 -265 -219 -82 -68 -221 -182 -309
-255 -154 -127 -159 -130 -178 -113 -19 17 -20 17 -34 -2 -8 -11 -18 -31 -21
-45 -3 -14 -10 -31 -16 -37 -6 -9 -2 -19 14 -32 13 -11 21 -23 16 -27 -4 -4
-13 1 -21 11 -11 15 -17 17 -27 8 -13 -11 -19 -13 -36 -13 -5 0 3 -6 17 -13
14 -8 24 -19 23 -25 -2 -7 -1 -12 2 -12 11 0 337 263 685 553 52 43 100 81
107 84 7 3 24 -8 38 -24 21 -22 24 -23 16 -6 -6 12 -16 25 -21 28 -19 12 -9
25 90 107 l100 82 -27 23 c-14 13 -29 23 -32 23 -3 0 -58 -43 -121 -96z m-820
-740 c0 -8 -4 -12 -10 -9 -5 3 -10 10 -10 16 0 5 5 9 10 9 6 0 10 -7 10 -16z"/>
<path d="M2577 4163 c-4 -4 -20 -9 -34 -11 -34 -4 -149 -105 -149 -130 0 -19
1 -19 39 -2 21 10 44 23 50 29 6 6 16 11 22 11 5 0 31 15 56 33 43 30 46 35
35 55 -7 13 -15 19 -19 15z m-7 -33 c-14 -11 -41 -27 -60 -36 -19 -9 -48 -28
-63 -40 -16 -13 -33 -24 -39 -24 -18 0 12 29 53 52 22 12 39 25 39 30 0 11 46
33 73 35 22 2 22 2 -3 -17z"/>
<path d="M2530 4125 c-14 -8 -20 -14 -14 -15 5 0 19 7 30 15 24 18 16 19 -16
0z"/>
<path d="M2678 4073 c7 -3 16 -2 19 1 4 3 -2 6 -13 5 -11 0 -14 -3 -6 -6z"/>
<path d="M2060 4019 c-12 -8 -12 -12 -2 -16 6 -2 12 -11 12 -19 0 -9 5 -12 10
-9 12 7 13 42 2 49 -4 2 -14 0 -22 -5z"/>
<path d="M2120 3934 c-10 -11 -9 -14 4 -14 9 0 16 -4 16 -10 0 -5 5 -10 10
-10 15 0 12 37 -4 43 -8 3 -20 -1 -26 -9z"/>
<path d="M3721 3913 c-18 -22 -19 -29 -9 -44 12 -16 148 -183 197 -242 11 -12
45 -53 76 -90 l57 -68 -30 -32 -30 -32 27 -28 27 -27 52 48 c28 26 52 55 52
63 0 17 -377 479 -390 479 -5 0 -18 -12 -29 -27z"/>
<path d="M1938 3924 c-16 -15 -8 -44 12 -44 11 0 20 5 20 10 0 6 -4 10 -9 10
-5 0 -11 7 -13 16 -2 9 -6 12 -10 8z"/>
<path d="M2036 3908 c10 -14 21 -24 23 -22 3 3 -6 15 -18 27 l-24 22 19 -27z"/>
<path d="M3030 3860 c-9 -6 -10 -10 -3 -10 6 0 15 5 18 10 8 12 4 12 -15 0z"/>
<path d="M2088 3844 c6 -11 19 -27 28 -35 16 -13 16 -12 6 7 -6 11 -19 27 -28
35 -16 13 -16 12 -6 -7z"/>
<path d="M2180 3851 c0 -6 7 -11 15 -11 9 0 12 -6 9 -15 -5 -11 -2 -13 10 -9
24 9 15 38 -12 42 -12 2 -22 -1 -22 -7z"/>
<path d="M2002 3837 c-8 -9 -11 -21 -7 -27 8 -13 45 -13 45 0 0 6 -4 10 -9 10
-5 0 -11 7 -13 17 -3 15 -4 15 -16 0z"/>
<path d="M2150 3772 c0 -9 38 -52 46 -52 2 0 -5 14 -18 30 -23 31 -28 35 -28
22z"/>
<path d="M2245 3770 c-3 -5 1 -10 9 -10 9 0 16 -7 16 -16 0 -8 5 -12 10 -9 6
3 10 15 10 26 0 20 -34 27 -45 9z"/>
<path d="M3428 3763 c12 -2 32 -2 45 0 12 2 2 4 -23 4 -25 0 -35 -2 -22 -4z"/>
<path d="M2060 3740 c0 -21 33 -29 45 -10 3 6 -1 10 -9 10 -9 0 -16 5 -16 10
0 6 -4 10 -10 10 -5 0 -10 -9 -10 -20z"/>
<path d="M2315 3690 c-3 -5 1 -10 9 -10 9 0 16 -8 16 -17 0 -13 3 -14 11 -6 7
7 9 19 6 27 -7 18 -33 21 -42 6z"/>
<path d="M2235 3667 c10 -15 20 -25 23 -22 3 3 -5 16 -17 28 l-23 22 17 -28z"/>
<path d="M2130 3661 c0 -21 26 -36 35 -20 6 9 -17 39 -29 39 -3 0 -6 -9 -6
-19z"/>
<path d="M2280 3612 c0 -5 12 -19 27 -33 l27 -24 -23 33 c-23 32 -31 39 -31
24z"/>
<path d="M2380 3611 c0 -6 7 -11 16 -11 11 0 14 -5 10 -16 -4 -10 -1 -14 6
-12 23 8 15 43 -9 46 -13 2 -23 -1 -23 -7z"/>
<path d="M2195 3590 c-9 -15 4 -30 26 -30 23 0 24 6 5 26 -17 17 -23 17 -31 4z"/>
<path d="M2450 3530 c0 -5 5 -10 10 -10 6 0 10 -8 10 -17 0 -13 3 -14 11 -6 7
7 9 19 6 27 -7 17 -37 22 -37 6z"/>
<path d="M2366 3505 c9 -14 21 -25 27 -25 6 0 0 11 -13 25 -13 14 -25 25 -27
25 -2 0 4 -11 13 -25z"/>
<path d="M2260 3501 c0 -21 21 -33 38 -22 8 5 5 12 -8 24 -26 22 -30 21 -30
-2z"/>
<path d="M1112 3483 c-6 -3 -9 -9 -6 -15 4 -6 10 -5 16 3 6 10 7 6 3 -11 -5
-22 -5 -23 6 -7 12 20 2 37 -19 30z"/>
<path d="M1067 3453 c-10 -9 -9 -23 1 -23 5 0 9 7 9 15 0 17 -1 18 -10 8z"/>
<path d="M1090 3450 c0 -5 5 -10 10 -10 6 0 10 5 10 10 0 6 -4 10 -10 10 -5 0
-10 -4 -10 -10z"/>
<path d="M2515 3451 c-3 -6 1 -11 10 -11 12 0 15 -5 11 -16 -4 -10 -1 -14 6
-12 19 7 16 42 -4 46 -9 2 -19 -2 -23 -7z"/>
<path d="M2420 3442 c0 -5 10 -17 21 -28 22 -19 22 -19 10 3 -12 24 -31 39
-31 25z"/>
<path d="M2330 3421 c0 -21 26 -36 35 -21 4 6 1 10 -4 10 -6 0 -11 7 -11 15 0
8 -4 15 -10 15 -5 0 -10 -9 -10 -19z"/>
<path d="M1005 3390 c-8 -16 -15 -35 -15 -43 0 -8 -25 -37 -55 -65 -30 -28
-55 -57 -55 -64 0 -7 80 -110 178 -228 661 -803 636 -772 624 -790 -15 -25 13
-64 41 -56 13 3 28 -2 37 -12 15 -15 15 -18 2 -28 -13 -9 -12 -14 3 -37 13
-21 21 -25 34 -17 12 6 22 5 29 -2 15 -15 15 -35 0 -40 -8 -3 -5 -15 11 -36
17 -25 26 -30 39 -23 10 5 22 5 33 -2 15 -9 23 -7 44 13 14 13 25 28 25 33 0
5 -26 39 -57 74 -32 36 -67 77 -78 92 -11 15 -37 48 -57 72 -39 47 -204 248
-428 520 -74 90 -190 230 -257 311 -68 81 -123 151 -123 155 1 7 69 67 132
114 l22 17 -25 29 c-13 15 -31 27 -41 25 -9 -2 -19 2 -23 7 -11 18 -24 12 -40
-19z m775 -1294 c0 -3 -4 -8 -10 -11 -5 -3 -10 -1 -10 4 0 6 5 11 10 11 6 0
10 -2 10 -4z"/>
<path d="M2585 3371 c-3 -6 1 -11 10 -11 12 0 15 -5 11 -16 -4 -10 -1 -14 6
-12 19 7 16 42 -4 46 -9 2 -19 -2 -23 -7z"/>
<path d="M2497 3345 c10 -13 22 -25 27 -25 5 0 -1 11 -14 25 -30 32 -36 32
-13 0z"/>
<path d="M2393 3344 c-8 -21 12 -38 34 -29 12 5 14 9 6 12 -7 3 -13 11 -13 19
0 19 -19 18 -27 -2z"/>
<path d="M2650 3291 c0 -6 5 -11 10 -11 6 0 10 -7 10 -15 0 -8 5 -15 11 -15
18 0 5 45 -13 48 -10 2 -18 -1 -18 -7z"/>
<path d="M2558 3274 c6 -11 19 -27 28 -35 16 -13 16 -12 6 7 -6 11 -19 27 -28
35 -16 13 -16 12 -6 -7z"/>
<path d="M2463 3265 c-8 -21 11 -40 29 -29 12 8 11 12 -4 27 -17 16 -19 16
-25 2z"/>
<path d="M3811 3260 c-13 -11 -19 -20 -14 -20 6 0 18 9 28 20 23 25 17 25 -14
0z"/>
<path d="M2717 3214 c-13 -13 -7 -23 10 -17 13 5 15 2 10 -11 -5 -12 -3 -16 5
-14 18 6 16 42 -2 46 -9 1 -19 0 -23 -4z"/>
<path d="M3600 3098 c-405 -335 -513 -423 -522 -427 -6 -2 -21 9 -35 25 -18
22 -21 23 -13 7 5 -12 15 -25 20 -28 6 -3 10 -10 10 -15 0 -5 -87 -80 -192
-167 -106 -88 -285 -235 -398 -328 -113 -93 -243 -200 -289 -239 l-83 -70 -28
34 -28 35 -29 -25 c-15 -14 -30 -26 -32 -27 -6 -4 81 -102 96 -108 20 -7 29
-1 214 151 457 377 898 741 1013 837 72 60 213 176 314 259 100 83 182 153
182 157 0 14 -32 51 -43 50 -7 0 -77 -55 -157 -121z"/>
<path d="M2620 3202 c0 -5 10 -17 22 -28 l21 -19 -18 28 c-18 28 -25 33 -25
19z"/>
<path d="M2530 3181 c0 -25 18 -37 33 -22 8 8 8 11 -1 11 -7 0 -12 7 -12 15 0
8 -4 15 -10 15 -5 0 -10 -9 -10 -19z"/>
<path d="M2785 3130 c-3 -5 -1 -10 4 -10 6 0 11 -7 11 -15 0 -17 16 -20 24 -6
9 14 -4 41 -19 41 -8 0 -17 -4 -20 -10z"/>
<path d="M2688 3114 c13 -25 42 -50 42 -37 0 5 -12 20 -26 34 -24 21 -26 22
-16 3z"/>
<path d="M2593 3104 c-8 -21 12 -38 34 -29 12 5 14 9 6 12 -7 3 -13 11 -13 19
0 19 -19 18 -27 -2z"/>
<path d="M2855 3051 c-3 -6 -1 -11 4 -11 6 0 11 -7 11 -15 0 -8 5 -15 11 -15
14 0 7 42 -8 47 -6 2 -14 -1 -18 -6z"/>
<path d="M2750 3042 c0 -5 12 -19 27 -33 l27 -24 -23 33 c-23 32 -31 39 -31
24z"/>
<path d="M2665 3027 c-4 -11 -3 -23 3 -29 6 -6 18 -7 29 -3 16 7 16 8 1 12 -9
2 -19 12 -21 21 -4 15 -5 15 -12 -1z"/>
<path d="M2917 2973 c-12 -12 -7 -22 8 -17 9 4 15 0 15 -10 0 -9 5 -16 10 -16
16 0 11 37 -6 44 -19 7 -19 7 -27 -1z"/>
<path d="M2733 2948 c-16 -19 0 -43 23 -34 12 4 14 10 8 14 -6 4 -13 13 -15
21 -4 11 -7 11 -16 -1z"/>
<path d="M2836 2935 c9 -14 21 -25 27 -25 6 0 0 11 -13 25 -13 14 -25 25 -27
25 -2 0 4 -11 13 -25z"/>
<path d="M2987 2893 c-11 -11 -8 -23 6 -20 6 1 11 -4 10 -10 -4 -16 13 -17 22
-3 4 6 1 17 -5 25 -14 16 -23 19 -33 8z"/>
<path d="M2880 2882 c0 -5 12 -19 27 -33 l27 -24 -23 33 c-23 32 -31 39 -31
24z"/>
<path d="M2793 2864 c-8 -21 12 -38 34 -29 12 5 14 9 6 12 -7 3 -13 11 -13 19
0 19 -19 18 -27 -2z"/>
<path d="M2950 2804 c0 -12 37 -54 47 -54 4 0 -4 12 -18 28 -13 15 -25 29 -26
31 -2 2 -3 0 -3 -5z"/>
<path d="M3045 2800 c-3 -5 1 -10 9 -10 9 0 16 -7 16 -16 0 -8 5 -12 10 -9 18
11 11 45 -9 45 -11 0 -23 -4 -26 -10z"/>
<path d="M2860 2775 c0 -20 28 -31 43 -16 8 8 7 11 -6 11 -9 0 -17 5 -17 10 0
6 -4 10 -10 10 -5 0 -10 -7 -10 -15z"/>
<path d="M2938 2714 c-16 -15 -8 -44 12 -44 11 0 20 5 20 10 0 6 -4 10 -9 10
-5 0 -11 7 -13 16 -2 9 -6 12 -10 8z"/>
<path d="M814 1812 c-58 -20 -86 -38 -102 -68 -17 -32 -35 -266 -30 -383 4
-65 12 -121 22 -145 l16 -39 61 6 c185 16 344 199 342 392 -1 114 -44 192
-127 231 -60 28 -111 29 -182 6z m134 -174 c19 -16 42 -70 42 -99 0 -66 -98
-194 -143 -187 -21 3 -22 10 -25 98 -5 139 4 199 31 209 24 9 71 -1 95 -21z"/>
<path d="M2741 1811 c-82 -29 -98 -51 -111 -153 -16 -132 -17 -354 -1 -416 17
-67 35 -78 104 -61 226 53 373 281 312 485 -40 135 -162 194 -304 145z m130
-161 c49 -27 62 -112 28 -184 -41 -89 -138 -153 -140 -93 -3 89 4 254 12 269
11 20 68 25 100 8z"/>
<path d="M3160 1800 c-16 -16 -18 -25 -10 -40 14 -27 43 -25 77 4 24 20 25 26
14 40 -18 22 -57 20 -81 -4z"/>
<path d="M1305 1686 c-66 -30 -118 -113 -134 -215 -18 -111 22 -216 101 -269
68 -45 148 -29 221 44 83 83 40 149 -58 89 -44 -28 -92 -32 -120 -11 -27 20
-13 40 38 53 57 16 109 60 138 119 37 77 12 150 -64 185 -49 22 -81 23 -122 5z
m82 -104 c12 -7 16 -25 14 -55 -1 -18 -54 -47 -86 -47 -19 0 -19 32 0 70 19
36 46 49 72 32z"/>
<path d="M1700 1671 c-77 -24 -129 -78 -115 -121 10 -31 38 -32 98 -4 76 34
127 20 127 -35 0 -25 -6 -29 -69 -49 -85 -28 -142 -68 -166 -117 -17 -37 -17
-40 2 -84 21 -52 71 -91 116 -91 16 0 52 11 79 25 28 14 51 24 52 23 1 -2 7
-15 14 -30 13 -31 55 -46 77 -28 29 24 38 80 32 199 -5 116 -25 201 -60 254
-32 50 -122 77 -187 58z m118 -318 c3 -27 -2 -34 -28 -48 -77 -40 -121 15 -50
63 47 31 74 26 78 -15z"/>
<path d="M3410 1660 c-45 -21 -90 -72 -90 -103 0 -10 11 -22 24 -28 18 -9 32
-7 66 11 78 40 140 26 140 -30 0 -24 -6 -29 -61 -45 -115 -35 -183 -98 -181
-166 2 -66 65 -129 128 -129 17 0 53 11 80 25 27 14 50 25 51 25 0 0 6 -14 12
-30 12 -34 30 -45 65 -36 39 10 49 59 44 210 -4 119 -8 137 -35 197 -23 49
-40 72 -68 89 -52 32 -118 36 -175 10z m148 -306 c4 -38 -14 -54 -67 -61 -31
-4 -42 -2 -47 10 -9 24 14 57 49 73 45 19 62 14 65 -22z"/>
<path d="M3157 1647 c-28 -43 -37 -102 -36 -242 1 -145 11 -200 42 -219 22
-14 47 1 66 39 22 44 35 257 22 339 -17 100 -59 137 -94 83z"/>
<path d="M2042 1635 c-29 -37 -33 -80 -24 -256 9 -172 24 -219 70 -219 38 0
62 66 62 173 0 93 13 139 48 171 23 20 47 22 103 11 30 -6 41 -3 58 14 26 26
21 53 -15 90 -18 19 -34 25 -73 25 -46 1 -54 -3 -88 -36 l-37 -38 -21 43 c-25
52 -54 59 -83 22z"/>
<path d="M3790 1642 c-30 -25 -36 -75 -30 -257 6 -169 23 -225 65 -225 42 0
58 43 65 172 6 107 9 120 35 154 l28 36 66 -6 c59 -6 69 -4 85 13 13 14 16 28
12 45 -19 78 -137 99 -191 35 -29 -35 -41 -36 -51 -6 -8 28 -33 57 -49 57 -7
0 -23 -8 -35 -18z"/>
<path d="M4166 1638 c-51 -79 -44 -305 12 -373 64 -77 138 -74 213 9 l28 31 1
-40 c0 -49 -25 -156 -45 -195 -19 -36 -54 -46 -106 -31 -47 14 -76 7 -84 -19
-9 -29 10 -56 58 -79 77 -37 156 -22 211 40 14 16 38 64 53 107 25 72 27 89
27 257 1 168 -1 184 -23 238 -28 68 -50 84 -81 59 -26 -21 -39 -76 -40 -165 0
-59 -3 -71 -25 -92 -27 -28 -52 -31 -80 -11 -16 12 -20 31 -25 123 -4 80 -10
117 -23 136 -21 33 -52 35 -71 5z"/>
<path d="M2085 688 c-62 -35 -77 -85 -41 -136 32 -47 32 -59 1 -96 -52 -60 -6
-89 50 -33 41 41 46 87 15 127 -27 34 -25 59 6 91 41 43 19 75 -31 47z"/>
<path d="M1752 678 c-32 -40 -40 -147 -16 -207 29 -72 107 -96 154 -46 45 48
35 219 -14 249 -24 16 -35 -8 -25 -53 10 -42 12 -123 3 -145 -3 -9 -17 -16
-30 -16 -31 0 -39 31 -30 128 7 88 -11 127 -42 90z"/>
<path d="M2290 681 c-78 -16 -108 -56 -50 -67 l30 -6 0 -92 c0 -67 4 -98 15
-112 15 -19 15 -19 30 0 11 15 15 46 15 116 l0 96 35 17 c37 18 46 41 19 51
-19 7 -46 6 -94 -3z"/>
<path d="M2623 679 c-18 -18 -16 -51 6 -134 18 -70 43 -129 59 -139 20 -12 44
25 77 119 40 115 44 155 17 155 -18 0 -51 -58 -67 -117 -10 -37 -21 -27 -34
32 -15 66 -40 102 -58 84z"/>
<path d="M2934 676 c-27 -12 -34 -22 -43 -66 -12 -58 -14 -98 -4 -153 8 -53
37 -66 97 -43 57 22 75 42 55 62 -12 12 -21 12 -48 3 -22 -8 -36 -8 -43 -1
-11 11 0 23 50 53 42 25 37 44 -12 43 -45 -2 -50 26 -8 45 51 23 72 41 66 56
-8 19 -67 19 -110 1z"/>
<path d="M3174 665 c-25 -38 -40 -166 -25 -215 8 -29 17 -40 31 -40 19 0 24
15 33 95 3 29 4 28 26 -20 39 -87 68 -105 97 -60 21 33 31 170 15 218 -25 74
-61 32 -61 -71 l-1 -57 -28 73 c-43 107 -58 121 -87 77z"/>
<path d="M3525 683 c-54 -12 -84 -25 -89 -40 -8 -19 10 -33 42 -33 21 0 22 -3
22 -99 0 -70 4 -102 13 -110 26 -21 37 9 37 100 0 102 4 117 37 130 29 11 41
38 22 50 -15 9 -49 10 -84 2z"/>
<path d="M3692 673 c-9 -24 -9 -150 1 -185 4 -16 14 -28 22 -28 28 0 45 131
26 200 -8 30 -38 38 -49 13z"/>
<path d="M1547 666 c-3 -7 -1 -31 4 -52 13 -58 11 -130 -4 -143 -18 -14 -27
-4 -27 31 0 33 -23 47 -45 28 -19 -16 -19 -53 0 -89 26 -50 93 -58 122 -14 26
39 26 187 0 226 -19 29 -42 35 -50 13z"/>
<path d="M3694 419 c-3 -6 -2 -15 3 -20 13 -13 43 -1 43 17 0 16 -36 19 -46 3z"/>
</g>
</svg>
